<svg xmlns="http://www.w3.org/2000/svg" xmlns:xlink="http://www.w3.org/1999/xlink" width="98" height="98" viewBox="0 0 98 98"><defs><clipPath id="a"><rect width="98" height="98" fill="#fff"/></clipPath><clipPath id="b"><rect width="44" height="50.348" fill="none" stroke="#0c44c7" stroke-width="3"/></clipPath></defs><g transform="translate(-561 -1238)"><g transform="translate(560.852 1237.93)" opacity="0.998"><g transform="translate(0.148 0.07)" clip-path="url(#a)"><path d="M98.211,49.105A49.105,49.105,0,1,1,49.105,0,49.106,49.106,0,0,1,98.211,49.105" transform="translate(-0.149 -0.061)" fill="#fff"/></g></g><g transform="translate(588 1262)"><g clip-path="url(#b)"><path d="M21.856,13.936A14.2,14.2,0,0,0,8.486,23.4" transform="translate(0.145 0.239)" fill="none" stroke="#0c44c7" stroke-miterlimit="10" stroke-width="3"/><line y2="3.15" transform="translate(22.001)" fill="none" stroke="#0c44c7" stroke-miterlimit="10" stroke-width="3"/><line y2="12.599" transform="translate(22.001 33.073)" fill="none" stroke="#0c44c7" stroke-miterlimit="10" stroke-width="3"/><path d="M21.737,44.9a3.15,3.15,0,1,1-6.3,0" transform="translate(0.264 0.769)" fill="none" stroke="#0c44c7" stroke-miterlimit="10" stroke-width="3"/><path d="M42.449,28.216H1.5a20.474,20.474,0,0,1,40.949,0Z" transform="translate(0.026 0.133)" fill="none" stroke="#0c44c7" stroke-miterlimit="10" stroke-width="3"/></g></g></g></svg>