<svg xmlns="http://www.w3.org/2000/svg" xmlns:xlink="http://www.w3.org/1999/xlink" width="98" height="98" viewBox="0 0 98 98"><defs><clipPath id="a"><rect width="98" height="98" fill="#fff"/></clipPath></defs><g transform="translate(-169 -1238)"><g transform="translate(168.852 1237.93)" opacity="0.998"><g transform="translate(0.148 0.07)" clip-path="url(#a)"><path d="M98.211,49.105A49.105,49.105,0,1,1,49.105,0,49.106,49.106,0,0,1,98.211,49.105" transform="translate(-0.149 -0.061)" fill="#fff"/></g></g><g transform="translate(-186.429 -9.377)"><path d="M79.857,57.392V78.781H37V43.134H58.429" transform="translate(346 1237.752)" fill="none" stroke="#0c44c7" stroke-miterlimit="10" stroke-width="3"/><path d="M71.02,43.133,55.63,58.521l4.106,2.051,2.051,4.1L77.174,49.288" transform="translate(344.331 1237.752)" fill="none" stroke="#0c44c7" stroke-miterlimit="10" stroke-width="3"/><path d="M81.3,45.963a4.352,4.352,0,1,0-6.155-6.155Z" transform="translate(343.28 1238)" fill="none" stroke="#0c44c7" stroke-miterlimit="10" stroke-width="3"/><path d="M58.151,69.013l-9.232,3.076L52,62.857" transform="translate(345.139 1236.234)" fill="none" stroke="#0c44c7" stroke-miterlimit="10" stroke-width="3"/></g></g></svg>