<svg xmlns="http://www.w3.org/2000/svg" xmlns:xlink="http://www.w3.org/1999/xlink" width="98" height="98" viewBox="0 0 98 98"><defs><clipPath id="a"><rect width="98" height="98" fill="#fff"/></clipPath><clipPath id="b"><rect width="48.107" height="42" fill="none" stroke="#0c44c7" stroke-width="3"/></clipPath></defs><g transform="translate(-953 -1238)"><g transform="translate(952.852 1237.93)" opacity="0.998"><g transform="translate(0.148 0.07)" clip-path="url(#a)"><path d="M98.211,49.105A49.105,49.105,0,1,1,49.105,0,49.106,49.106,0,0,1,98.211,49.105" transform="translate(-0.149 -0.061)" fill="#fff"/></g></g><g transform="translate(977.945 1265.371)"><g transform="translate(0 0)" clip-path="url(#b)"><line x1="12.027" transform="translate(36.081 5.966)" fill="none" stroke="#0c44c7" stroke-miterlimit="10" stroke-width="3"/><line x1="18.041" transform="translate(0 5.966)" fill="none" stroke="#0c44c7" stroke-miterlimit="10" stroke-width="3"/><circle cx="4.51" cy="4.51" r="4.51" transform="translate(22.551 1.457)" fill="none" stroke="#0c44c7" stroke-miterlimit="10" stroke-width="3"/><line x1="24.054" transform="translate(24.054 21)" fill="none" stroke="#0c44c7" stroke-miterlimit="10" stroke-width="3"/><line x1="6.014" transform="translate(0 21)" fill="none" stroke="#0c44c7" stroke-miterlimit="10" stroke-width="3"/><circle cx="4.51" cy="4.51" r="4.51" transform="translate(10.524 16.49)" fill="none" stroke="#0c44c7" stroke-miterlimit="10" stroke-width="3"/><line x1="6.014" transform="translate(42.094 36.034)" fill="none" stroke="#0c44c7" stroke-miterlimit="10" stroke-width="3"/><line x1="24.054" transform="translate(0 36.034)" fill="none" stroke="#0c44c7" stroke-miterlimit="10" stroke-width="3"/><circle cx="4.51" cy="4.51" r="4.51" transform="translate(28.564 31.524)" fill="none" stroke="#0c44c7" stroke-miterlimit="10" stroke-width="3"/></g></g></g></svg>