<svg xmlns="http://www.w3.org/2000/svg" viewBox="0 0 247.63 36.92"><defs><style>.cls-1{fill:#040000;}</style></defs><g id="レイヤー_2" data-name="レイヤー 2"><g id="レイヤー_1-2" data-name="レイヤー 1"><path class="cls-1" d="M31.3,32V36.5H0V32L24.49,4.9H0V.41H31.3V4.9L6.91,32Z"/><path class="cls-1" d="M208.48,32V36.5h-31.3V32L201.67,4.9H177.18V.41h31.3V4.9L184.09,32Z"/><path class="cls-1" d="M70.87.41V36.5H65.71V20.42H44V36.5H38.88V.41H44V15.93H65.71V.41Z"/><path class="cls-1" d="M122.6,18.46C122.6,7.89,130.75,0,141.83,0S161,7.84,161,18.46s-8.14,18.46-19.13,18.46S122.6,29,122.6,18.46Zm33.21,0a13.55,13.55,0,0,0-14-13.87c-8.09,0-14.07,5.88-14.07,13.87s6,13.87,14.07,13.87A13.55,13.55,0,0,0,155.81,18.46Z"/><path class="cls-1" d="M227.78,20.47l-6.6,6.7V36.5H216V.41h5.15V20.57L240.78.41h5.87L231.24,16.65,247.63,36.5h-6Z"/><path class="cls-1" d="M110.93,0V5.56A19.37,19.37,0,0,0,97,0C85.87,0,77.72,7.89,77.72,18.46S85.87,36.92,97,36.92a19.37,19.37,0,0,0,14-5.56v5.56h4.89V0ZM97,32.33c-8.09,0-14.07-5.88-14.07-13.87S88.86,4.59,97,4.59a13.55,13.55,0,0,1,14,13.87A13.55,13.55,0,0,1,97,32.33Z"/><circle class="cls-1" cx="167.71" cy="33.28" r="3.22"/></g></g></svg>