<svg xmlns="http://www.w3.org/2000/svg" width="52.253" height="52.254" viewBox="0 0 52.253 52.254"><g transform="translate(-479.746 -4747.999)"><line x1="50.753" transform="translate(481.246 4798.753)" fill="none" stroke="#004ff3" stroke-miterlimit="10" stroke-width="3"/><line y1="51.749" transform="translate(481.246 4748)" fill="none" stroke="#004ff3" stroke-miterlimit="10" stroke-width="3"/><line y1="3.274" transform="translate(492.707 4793.841)" fill="none" stroke="#004ff3" stroke-miterlimit="10" stroke-width="3"/><line y1="3.274" transform="translate(499.256 4793.841)" fill="none" stroke="#004ff3" stroke-miterlimit="10" stroke-width="3"/><line y1="3.274" transform="translate(505.804 4793.841)" fill="none" stroke="#004ff3" stroke-miterlimit="10" stroke-width="3"/><line y1="3.274" transform="translate(512.353 4793.841)" fill="none" stroke="#004ff3" stroke-miterlimit="10" stroke-width="3"/><line y1="3.274" transform="translate(518.901 4793.841)" fill="none" stroke="#004ff3" stroke-miterlimit="10" stroke-width="3"/><line y1="3.274" transform="translate(525.45 4793.841)" fill="none" stroke="#004ff3" stroke-miterlimit="10" stroke-width="3"/><line x1="3.274" transform="translate(482.886 4788.93)" fill="none" stroke="#004ff3" stroke-miterlimit="10" stroke-width="3"/><line x1="3.274" transform="translate(482.886 4782.381)" fill="none" stroke="#004ff3" stroke-miterlimit="10" stroke-width="3"/><line x1="3.274" transform="translate(482.886 4775.832)" fill="none" stroke="#004ff3" stroke-miterlimit="10" stroke-width="3"/><line x1="3.274" transform="translate(482.886 4769.283)" fill="none" stroke="#004ff3" stroke-miterlimit="10" stroke-width="3"/><line x1="3.274" transform="translate(482.886 4762.734)" fill="none" stroke="#004ff3" stroke-miterlimit="10" stroke-width="3"/><line x1="3.274" transform="translate(482.886 4756.186)" fill="none" stroke="#004ff3" stroke-miterlimit="10" stroke-width="3"/><path d="M204.909,37.018l9.831-13.1,8.2,6.549,14.725-14.735" transform="translate(287.798 4747)" fill="none" stroke="#004ff3" stroke-miterlimit="10" stroke-width="3"/><path d="M237.67,28.832v-13.1h-13.1" transform="translate(287.798 4747)" fill="none" stroke="#004ff3" stroke-miterlimit="10" stroke-width="3"/></g></svg>