<svg xmlns="http://www.w3.org/2000/svg" width="69.743" height="55" viewBox="0 0 69.743 55"><g transform="translate(-287.221 -4746.694)"><path d="M48.37,15.063A13.866,13.866,0,1,1,34.505,1.2,13.867,13.867,0,0,1,48.37,15.063Z" transform="translate(287.798 4747)" fill="none" stroke="#004ff3" stroke-miterlimit="10" stroke-width="3"/><path d="M53.57,8.128a10.4,10.4,0,1,1,0,20.8" transform="translate(287.798 4747)" fill="none" stroke="#004ff3" stroke-miterlimit="10" stroke-width="3"/><path d="M58.77,35.818,65.7,37.595l1.734,12.134H58.77" transform="translate(287.798 4747)" fill="none" stroke="#004ff3" stroke-miterlimit="10" stroke-width="3"/><path d="M15.02,8.6a10.4,10.4,0,1,0,0,20.8" transform="translate(287.798 4747)" fill="none" stroke="#004ff3" stroke-miterlimit="10" stroke-width="3"/><path d="M9.82,36.284,2.887,38.061,1.153,50.2H9.82" transform="translate(287.798 4747)" fill="none" stroke="#004ff3" stroke-miterlimit="10" stroke-width="3"/><path d="M44.672,35.862,51.79,38.17l1.78,15.025H15.436l1.78-15.025,7.118-2.308" transform="translate(287.798 4747)" fill="none" stroke="#004ff3" stroke-miterlimit="10" stroke-width="3"/></g></svg>